<?xml version="1.0" encoding="utf-8"?>
<!-- Generator: Adobe Illustrator 26.5.0, SVG Export Plug-In . SVG Version: 6.00 Build 0)  -->
<svg version="1.1" id="Laag_1" xmlns="http://www.w3.org/2000/svg" xmlns:xlink="http://www.w3.org/1999/xlink" x="0px" y="0px"
	 viewBox="0 0 428.29 210.47" style="enable-background:new 0 0 428.29 210.47;" xml:space="preserve">
<style type="text/css">
	.st0{fill:none;}
	.st1{fill:#BD667A;}
	.st2{fill:#95C11F;}
	.st3{fill:#A21C4D;}
</style>
<g>
	<rect x="63.23" y="26.18" class="st0" width="204.67" height="89.94"/>
	<g>
		<rect x="267.9" y="26.18" class="st0" width="135.5" height="94.51"/>
	</g>
	<g>
		<path class="st1" d="M305.59,102.62c0,0-22.86-3.03-26.59-21.06c-3.74-18.03,1.29-32.07,1.29-32.07s14.94,6.45,22.56,15.07
			c16.51,18.68,2.95,14.37,2.95,14.37s0.07,6.62-5.82-1.35c-5.89-7.98-9.2-10.05-9.2-10.05s6.04,9.26,8.48,14.36
			C301.71,86.99,305.59,102.62,305.59,102.62z"/>
		<path class="st2" d="M305.81,101.91c0,0-9.49-25.85,1.51-38.78c11-12.93,31.7-23.46,31.7-23.46s6.9,19.63,1.94,39.25
			c-4.96,19.63-30.62,22.98-30.62,22.98s1.73-12.45,4.96-21.06c3.23-8.62,8.84-19.39,8.84-19.39s-7.72,7.35-11.86,15.56
			C307.32,86.83,305.81,101.91,305.81,101.91z"/>
	</g>
	<rect x="63.23" y="26.18" class="st0" width="204.67" height="89.94"/>
	<path class="st2" d="M72.19,61.23c0-8.72-0.37-17.54-0.73-26.27c5.48,0.3,10.87,0.51,16.35,0.51c5.48,0,10.87-0.2,17.45-0.51
		c-0.18,1.01-0.27,2.03-0.27,3.04c0,1.01,0.09,2.03,0.27,3.04c-6.58-0.71-19.55-1.32-25.49-1.32c-0.09,4.77-0.18,9.03-0.18,13.29
		c0,4.67,0.09,8.52,0.09,12.78c7.86,0,15.99-0.2,23.57-1.01c-0.18,1.01-0.37,2.03-0.37,3.04c0,1.01,0.18,2.03,0.37,3.04
		c-6.12-0.71-15.71-0.81-23.57-0.81v8.62c0,8.72,0.37,17.54,0.73,26.27c-1.55-0.3-3.01-0.51-4.48-0.51c-1.46,0-2.92,0.2-4.48,0.51
		c0.37-8.72,0.73-17.54,0.73-26.27V61.23z"/>
	<g>
		<rect x="267.9" y="26.18" class="st0" width="135.5" height="94.51"/>
	</g>
	<g>
		<path class="st3" d="M51.13,130.33c0-8.72-0.37-17.54-0.73-26.27c5.48,0.3,10.87,0.51,16.35,0.51c5.48,0,10.87-0.2,17.45-0.51
			c-0.18,1.01-0.27,2.03-0.27,3.04c0,1.01,0.09,2.03,0.27,3.04c-6.58-0.71-19.55-1.32-25.49-1.32c-0.09,4.77-0.18,9.03-0.18,13.29
			c0,4.67,0.09,8.52,0.09,12.78c7.86,0,15.99-0.2,23.57-1.01c-0.18,1.01-0.37,2.03-0.37,3.04c0,1.01,0.18,2.03,0.37,3.04
			c-6.12-0.71-15.71-0.81-23.57-0.81v8.62c0,8.72,0.37,17.54,0.73,26.27c-1.55-0.3-3.01-0.51-4.48-0.51c-1.46,0-2.92,0.2-4.48,0.51
			c0.37-8.72,0.73-17.54,0.73-26.27V130.33z"/>
		<path class="st2" d="M112.36,133.88c-0.64-0.81-2.65-1.62-4.48-1.62c-5.85,0-9.32,6.19-9.32,14.1c0,17.65,0,23.02,0.37,27.69
			c-1.19-0.3-2.47-0.51-3.65-0.51c-1.28,0-2.47,0.2-3.84,0.51c0.37-4.97,0.37-12.88,0.37-24.24v-3.25c0-5.27,0-12.27-0.37-20.99
			c1.37,0.3,2.56,0.51,3.84,0.51c1.19,0,2.47-0.2,3.65-0.51c-0.46,4.87-0.46,7.3-0.46,9.84l0.18,0.1
			c3.47-7.3,7.86-10.95,12.06-10.95c1.1,0,1.74,0.1,2.92,0.61c-0.64,1.62-0.64,5.48-0.64,8.22L112.36,133.88z"/>
		<path class="st2" d="M139.03,124.55c12.79,0,18.91,9.43,18.91,20.69c0,1.32-0.09,2.64-0.18,3.95c-6.58-0.1-13.06-0.3-19.55-0.3
			c-4.02,0-7.95,0.2-11.97,0.3c-0.09,1.01-0.09,1.93-0.09,2.84c0,10.55,5.66,18.76,15.81,18.76c4.84,0,10.51-3.14,13.7-7.2l0.46,0.3
			l-0.55,4.97c-3.65,3.25-9.59,6.19-15.26,6.19c-13.16,0-22.2-10.34-22.2-23.83C118.11,134.79,125.6,124.55,139.03,124.55z
			 M126.43,145.34c3.75,0.1,8.04,0.3,11.88,0.3c4.02,0,8.31-0.2,12.15-0.3c0-7.2-1.74-17.54-11.24-17.54
			C130.26,127.8,126.88,138.04,126.43,145.34z"/>
		<path class="st2" d="M184.72,124.55c12.79,0,18.91,9.43,18.91,20.69c0,1.32-0.09,2.64-0.18,3.95c-6.58-0.1-13.07-0.3-19.55-0.3
			c-4.02,0-7.95,0.2-11.97,0.3c-0.09,1.01-0.09,1.93-0.09,2.84c0,10.55,5.66,18.76,15.81,18.76c4.84,0,10.51-3.14,13.71-7.2
			l0.46,0.3l-0.55,4.97c-3.65,3.25-9.59,6.19-15.26,6.19c-13.16,0-22.2-10.34-22.2-23.83C163.79,134.79,171.29,124.55,184.72,124.55
			z M172.11,145.34c3.75,0.1,8.04,0.3,11.88,0.3c4.02,0,8.31-0.2,12.15-0.3c0-7.2-1.74-17.54-11.24-17.54
			C175.95,127.8,172.57,138.04,172.11,145.34z"/>
		<path class="st2" d="M244.29,164.1h-0.18c-1.83,4.26-6.49,10.95-15.44,10.95c-9.23,0-18.55-7.5-18.55-24.95
			c0-17.24,10.14-25.55,19.64-25.55c6.76,0,11.51,3.55,14.07,10.14h0.18c0-9.24,0.27-21.14,0.13-29.76
			c-0.05-3.3,2.44-4.74,2.34-7.16c1.46,0.2,0,0,1.28,0c1.28,0,1-0.1,2.56-0.3c-0.19,2.01,1,3.8,0.86,7.46
			c-0.44,11.86-0.4,31.51-0.4,44.76c0,9.23,0.18,16.23,0.27,24.34c-1.37-0.2-2.47-0.51-3.56-0.51c-1.1,0-2.19,0.3-3.47,0.51
			L244.29,164.1z M230.76,171.3c9.5,0,13.61-11.46,13.61-22.51c0-12.78-4.66-19.98-13.34-19.98c-8.77,0-12.88,9.63-12.88,21.9
			C218.16,166.94,224.83,171.3,230.76,171.3z"/>
		<path class="st2" d="M282.48,124.55c10.6,0,22.2,6.79,22.2,25.25s-11.6,25.25-22.2,25.25c-10.6,0-22.2-6.79-22.2-25.25
			S271.88,124.55,282.48,124.55z M282.48,171.81c10.78,0,14.16-10.65,14.16-22.01c0-11.36-3.38-22.01-14.16-22.01
			c-10.78,0-14.16,10.65-14.16,22.01C268.32,161.16,271.7,171.81,282.48,171.81z"/>
		<path class="st2" d="M315.01,144.53c0-6.08-0.18-13.18-0.73-18.96c1.37,0.3,2.74,0.51,4.11,0.51c0.91,0,2.28-0.2,3.65-0.51
			c-0.18,2.74-0.27,5.37-0.27,8.11h0.18c3.29-6.19,7.77-9.13,13.61-9.13c6.21,0,11.97,4.26,13.25,10.04h0.18
			c2.92-6.49,8.22-10.04,14.71-10.04c7.95,0,13.98,4.56,13.98,16.02c0,4.67-0.55,10.45-0.55,22.41c0,3.65,0,6.79,0.27,11.05
			c-1.28-0.3-2.56-0.51-3.93-0.51c-1.37,0-2.74,0.2-4.02,0.51c0.37-3.75,0.91-13.89,0.91-32.05c0-6.79-2.38-12.17-9.59-12.17
			c-4.39,0-7.49,2.23-9.14,4.77c-1.92,3.04-2.19,4.06-2.19,23.32c0,5.88,0.18,9.84,0.46,16.12c-1.37-0.3-2.74-0.51-4.02-0.51
			c-1.28,0-2.65,0.2-4.02,0.51c0.55-7.61,0.82-15.62,0.82-23.02c0-12.57-0.09-13.39-1.64-16.53c-1.28-2.54-4.57-4.67-7.58-4.67
			c-7.86,0-11.69,6.08-11.69,16.63v8.62c0,6.08,0.18,13.18,0.73,18.96c-1.37-0.3-2.74-0.51-4.11-0.51c-1.37,0-2.74,0.2-4.11,0.51
			c0.55-5.78,0.73-12.88,0.73-18.96V144.53z"/>
	</g>
	<g>
		<rect x="267.9" y="26.18" class="st0" width="135.5" height="94.51"/>
	</g>
	<path class="st3" d="M130.21,55.45c10.6,0,22.2,6.79,22.2,25.25s-11.6,25.25-22.2,25.25c-10.6,0-22.2-6.79-22.2-25.25
		S119.61,55.45,130.21,55.45z M130.21,102.71c10.78,0,14.16-10.65,14.16-22.01s-3.38-22.01-14.16-22.01s-14.16,10.65-14.16,22.01
		S119.43,102.71,130.21,102.71z"/>
	<path class="st3" d="M181.01,55.45c10.6,0,22.2,6.79,22.2,25.25s-11.6,25.25-22.2,25.25c-10.6,0-22.2-6.79-22.2-25.25
		S170.41,55.45,181.01,55.45z M181.01,102.71c10.78,0,14.16-10.65,14.16-22.01s-3.38-22.01-14.16-22.01
		c-10.78,0-14.16,10.65-14.16,22.01S170.23,102.71,181.01,102.71z"/>
	<path class="st2" d="M244.42,95h-0.18c-1.83,4.26-6.49,10.95-15.44,10.95c-9.23,0-18.55-7.5-18.55-24.95
		c0-17.24,10.14-25.55,19.64-25.55c6.76,0,11.51,3.55,14.07,10.14h0.18c0-12.78,0-28.7-0.36-37.42c1.46,0.2,2.83,0.51,4.11,0.51
		c1.28,0,2.56-0.3,4.11-0.51c-0.82,8.52-1.1,35.09-1.1,52.43c0,9.23,0.18,16.23,0.27,24.34c-1.37-0.2-2.47-0.51-3.56-0.51
		c-1.1,0-2.19,0.3-3.47,0.51L244.42,95z M230.89,102.2c9.5,0,13.61-11.46,13.61-22.51c0-12.78-4.66-19.98-13.34-19.98
		c-8.77,0-12.88,9.63-12.88,21.9C218.29,97.84,224.96,102.2,230.89,102.2z"/>
	<g>
		<g>
			<path class="st2" d="M299.9,137.05c0.3-6.09-0.11-12.19,0.16-18.28c0.2-4.57,0.87-9.63,3.91-13.02c1.96-2.19,4.57-3.49,7.37-4.34
				c2.72-0.82,1.56-5.1-1.18-4.27c-5.84,1.76-10.47,5.34-12.71,11.11c-2.11,5.42-1.94,11.58-1.89,17.3
				c0.04,3.83,0.1,7.66-0.09,11.49C295.33,139.9,299.76,139.89,299.9,137.05L299.9,137.05z"/>
		</g>
	</g>
</g>
</svg>
